<?xml version="1.0" standalone="no"?>
<!DOCTYPE svg PUBLIC "-//W3C//DTD SVG 20010904//EN"
 "http://www.w3.org/TR/2001/REC-SVG-20010904/DTD/svg10.dtd">
<svg version="1.0" xmlns="http://www.w3.org/2000/svg"
 width="180.000000pt" height="180.000000pt" viewBox="0 0 180.000000 180.000000"
 preserveAspectRatio="xMidYMid meet">
<metadata>
Created by potrace 1.14, written by Peter Selinger 2001-2017
</metadata>
<g transform="translate(0.000000,180.000000) scale(0.100000,-0.100000)"
fill="#000000" stroke="none">
<path d="M817 1776 c-138 -51 -205 -194 -162 -343 19 -65 89 -142 148 -164 37
-13 37 -14 37 -69 0 -55 0 -56 -36 -69 -43 -15 -109 -73 -130 -112 l-14 -28
-60 22 -60 22 0 46 c0 103 -55 190 -152 238 -107 54 -223 35 -309 -51 -106
-106 -105 -263 3 -370 99 -99 266 -103 368 -8 l39 36 73 -27 c62 -22 74 -31
82 -55 30 -100 86 -168 159 -195 37 -13 37 -14 37 -69 0 -55 0 -56 -36 -69
-20 -7 -54 -29 -76 -49 -108 -98 -115 -266 -15 -370 54 -57 102 -77 187 -77
85 0 133 20 187 77 73 75 92 202 45 294 -26 50 -88 108 -136 125 -36 13 -36
14 -36 69 0 55 0 56 37 69 73 27 129 95 159 195 8 24 20 33 84 56 l74 27 19
-24 c10 -13 42 -36 70 -50 43 -22 66 -27 127 -28 90 0 135 19 197 82 120 123
84 331 -70 409 -179 91 -381 -22 -395 -221 l-4 -61 -59 -21 -59 -22 -14 28
c-21 39 -87 97 -130 112 -36 13 -36 14 -36 69 0 55 0 56 37 69 57 21 129 99
147 162 20 67 20 114 0 177 -34 104 -120 171 -227 178 -38 3 -76 -1 -100 -10z
m162 -133 c42 -31 63 -81 57 -136 -17 -173 -246 -181 -272 -10 -19 125 117
217 215 146z m-646 -428 c106 -44 114 -194 12 -253 -75 -43 -169 -16 -207 59
-23 46 -22 87 5 133 39 68 115 93 190 61z m1253 5 c80 -31 117 -133 75 -205
-59 -101 -216 -94 -266 11 -55 116 68 241 191 194z"/>
</g>
</svg>
